<?xml version="1.0" encoding="UTF-8"?>
<svg width="18px" height="18px" viewBox="0 0 18 18" version="1.1" xmlns="http://www.w3.org/2000/svg" xmlns:xlink="http://www.w3.org/1999/xlink">
    <g id="cog" fill="#000000">
        <path d="M9,15 C5.6862915,15 3,12.3137085 3,9 C3,5.6862915 5.6862915,3 9,3 C12.3137085,3 15,5.6862915 15,9 C15,12.3137085 12.3137085,15 9,15 Z M9,13 C11.209139,13 13,11.209139 13,9 C13,6.790861 11.209139,5 9,5 C6.790861,5 5,6.790861 5,9 C5,11.209139 6.790861,13 9,13 Z" id="Combined-Shape"></path>
        <path d="M6.74753533,3.8740903 C6.15661129,5.0719391 4.70716339,6.73757458 3.78297854,6.96883649 C4.21213915,8.23368989 4.36500685,10.4363865 3.87503634,11.2534107 C5.07288515,11.8443348 6.73852062,13.2937827 6.96978253,14.2179675 C8.23463594,13.7888069 10.4373325,13.6359392 11.2543568,14.1259097 C11.8452808,12.9280609 13.2947287,11.2624254 14.2189136,11.0311635 C13.7897529,9.76631011 13.6368852,7.56361353 14.1268557,6.74658929 C12.9290069,6.15566525 11.2633715,4.70621735 11.0321096,3.78203249 C9.76725615,4.21119311 7.56455957,4.36406081 6.74753533,3.8740903 Z M6.70456523,3.44304892 C7.36140531,3.04174527 7.66637604,2.24040768 7.61947744,1.03903618 L7.61944913,1.03903728 C7.59790508,0.487157238 8.02782735,0.0223051651 8.57970739,0.000761117159 C8.59270419,0.000253754002 8.60570965,1.44362536e-15 8.61871634,1.44123672e-15 L8.61871634,1.55221837e-15 L9.38195737,1.64028269e-15 L9.38195737,2.64507304e-05 C9.93422751,2.64507304e-05 10.3819309,0.447729859 10.3819309,1 C10.3819309,1.01362008 10.3816526,1.02723874 10.3810963,1.04084745 C10.3320889,2.23957992 10.6405626,3.04158269 11.3065174,3.44685577 C12.054738,3.6275473 12.8370161,3.27656294 13.6533517,2.39390268 L13.6533309,2.39388344 C14.0283351,1.98841137 14.6610361,1.96371227 15.0665082,2.33871645 C15.0760571,2.34754782 15.0854327,2.35656463 15.0946299,2.36576175 L15.0946299,2.36576175 L15.6343228,2.90545466 L15.6343041,2.90547336 C16.024818,3.29598732 16.024818,3.92913556 15.6343041,4.31964952 C15.6246732,4.32928037 15.6148466,4.33871345 15.6048304,4.34794286 C14.7225451,5.16092127 14.3735673,5.94614672 14.5578971,6.70361919 C14.9592008,7.36045927 15.7605384,7.66543 16.9619099,7.61853139 L16.9619088,7.61850308 C17.5137888,7.59695903 17.9786409,8.0268813 18.0001849,8.57876135 C18.0006923,8.59175814 18.000946,8.6047636 18.000946,8.6177703 L18.000946,9.38101132 L18.0009196,9.38101132 C18.0009196,9.93328146 17.5532162,10.3809849 17.000946,10.3809849 C16.987326,10.3809849 16.9737073,10.3807066 16.9600986,10.3801502 C15.7613661,10.3311429 14.9593634,10.6396166 14.5540903,11.3055713 C14.3733987,12.053792 14.7243831,12.8360701 15.6070434,13.6524057 L15.6070626,13.6523849 C16.0125347,14.0273891 16.0372338,14.6600901 15.6622296,15.0655621 C15.6533982,15.075111 15.6443814,15.0844867 15.6351843,15.0936838 L15.6351843,15.0936838 L15.0954914,15.6333767 L15.0954727,15.633358 C14.7049587,16.023872 14.0718105,16.023872 13.6812965,15.633358 C13.6716657,15.6237272 13.6622326,15.6139006 13.6530032,15.6038843 C12.8400248,14.721599 12.0547993,14.3726213 11.2973269,14.5569511 C10.6404868,14.9582547 10.335516,15.7595923 10.3824147,16.9609638 L10.382443,16.9609627 C10.403987,17.5128428 9.97406474,17.9776948 9.4221847,17.9992389 C9.4091879,17.9997462 9.39618244,18 9.38317575,18 L8.61993472,18 L8.61993472,17.9999735 C8.06766458,17.9999735 7.61996117,17.5522701 7.61996117,17 C7.61996117,16.9863799 7.62023944,16.9727613 7.6207958,16.9591525 C7.66980317,15.7604201 7.36132947,14.9584173 6.6953747,14.5531442 C5.94715409,14.3724527 5.16487598,14.7234371 4.34854036,15.6060973 L4.34856116,15.6061166 C3.97355698,16.0115886 3.34085598,16.0362877 2.93538391,15.6612835 C2.92583503,15.6524522 2.91645935,15.6434354 2.90726223,15.6342382 L2.36756932,15.0945453 L2.36758803,15.0945266 C1.97707407,14.7040127 1.97707407,14.0708644 2.36758803,13.6803505 C2.37721888,13.6707196 2.38704549,13.6612865 2.39706171,13.6520571 C3.27934701,12.8390787 3.62832476,12.0538533 3.44399497,11.2963808 C3.04269131,10.6395407 2.24135373,10.33457 1.03998222,10.3814686 L1.03998333,10.3814969 C0.488103283,10.403041 0.02325121,9.9731187 0.00170716208,9.42123865 C0.00119979892,9.40824186 0.000946044922,9.3952364 0.000946044922,9.3822297 L0.000946044922,9.3822297 L0.000946044922,8.61898868 L0.000972495652,8.61898868 C0.000972495652,8.06671854 0.448675903,7.61901513 1.00094604,7.61901513 C1.01456613,7.61901513 1.02818478,7.6192934 1.0417935,7.61984976 C2.24052597,7.66885712 3.04252874,7.36038342 3.44780181,6.69442865 C3.62849335,5.94620805 3.27750898,5.16392993 2.39484872,4.34759432 L2.39482948,4.34761512 C1.98935742,3.97261094 1.96465832,3.33990993 2.3396625,2.93443787 C2.34849386,2.92488899 2.35751068,2.91551331 2.3667078,2.90631618 L2.3667078,2.90631618 L2.9064007,2.36662328 L2.90641941,2.36664198 C3.29693337,1.97612802 3.9300816,1.97612802 4.32059556,2.36664198 C4.33022641,2.37627283 4.3396595,2.38609945 4.3488889,2.39611566 C5.16186732,3.27840096 5.94709276,3.62737872 6.70456523,3.44304892 Z" id="Rectangle-3"></path>
    </g>
</svg>
